<?xml version="1.0" encoding="UTF-8" standalone="no"?><!DOCTYPE svg PUBLIC "-//W3C//DTD SVG 1.1//EN" "http://www.w3.org/Graphics/SVG/1.1/DTD/svg11.dtd"><!-- Generated by graphviz version 2.40.1 (20161225.0304)
 --><!-- Title: basket_items Pages: 1 --><svg xmlns="http://www.w3.org/2000/svg" xmlns:xlink="http://www.w3.org/1999/xlink" width="904pt" height="575pt" viewBox="0.00 0.00 903.57 575.00">
<g id="graph0" class="graph" transform="scale(1 1) rotate(0) translate(4 571)">
<title>basket_items</title>
<polygon fill="#ffffff" stroke="transparent" points="-4,4 -4,-571 899.5727,-571 899.5727,4 -4,4"/>
<!-- basket_items -->
<g id="node1" class="node">
<title>basket_items</title>
<polygon fill="none" stroke="#000000" points="45.4099,-433.3 45.4099,-558.1 179.9731,-558.1 179.9731,-433.3 45.4099,-433.3"/>
<text text-anchor="middle" x="112.6915" y="-541.5" font-family="Times,serif" font-size="14.00" fill="#000000">basket_items</text>
<polyline fill="none" stroke="#000000" points="45.4099,-533.3 179.9731,-533.3 "/>
<text text-anchor="start" x="53.4099" y="-516.7" font-family="Times,serif" font-size="14.00" fill="#000000">price : numeric(38,2)</text>
<text text-anchor="start" x="53.4099" y="-499.9" font-family="Times,serif" font-size="14.00" fill="#000000"> quantity : integer</text>
<text text-anchor="start" x="53.4099" y="-483.1" font-family="Times,serif" font-size="14.00" fill="#000000"> basket_id : integer</text>
<text text-anchor="start" x="53.4099" y="-466.3" font-family="Times,serif" font-size="14.00" fill="#000000"> product_id : integer</text>
<polyline fill="none" stroke="#000000" points="45.4099,-458.1 179.9731,-458.1 "/>
<text text-anchor="start" x="53.4099" y="-441.5" font-family="Times,serif" font-size="14.00" fill="#000000">id : integer</text>
</g>
<!-- baskets -->
<g id="node2" class="node">
<title>baskets</title>
<polygon fill="none" stroke="#000000" points="216.4576,-237.9 216.4576,-329.1 354.9254,-329.1 354.9254,-237.9 216.4576,-237.9"/>
<text text-anchor="middle" x="285.6915" y="-312.5" font-family="Times,serif" font-size="14.00" fill="#000000">baskets</text>
<polyline fill="none" stroke="#000000" points="216.4576,-304.3 354.9254,-304.3 "/>
<text text-anchor="start" x="224.4576" y="-287.7" font-family="Times,serif" font-size="14.00" fill="#000000">is_active : boolean</text>
<text text-anchor="start" x="224.4576" y="-270.9" font-family="Times,serif" font-size="14.00" fill="#000000"> customer_id : integer</text>
<polyline fill="none" stroke="#000000" points="216.4576,-262.7 354.9254,-262.7 "/>
<text text-anchor="start" x="224.4576" y="-246.1" font-family="Times,serif" font-size="14.00" fill="#000000">id : integer</text>
</g>
<!-- basket_items&#45;&gt;baskets -->
<g id="edge1" class="edge">
<title>basket_items-&gt;baskets</title>
<path fill="none" stroke="#595959" d="M180.0761,-495C214.4322,-495 249.0588,-495 249.0588,-495 249.0588,-495 249.0588,-339.132 249.0588,-339.132"/>
<polygon fill="#595959" stroke="#595959" points="252.5588,-339.1319 249.0588,-329.132 245.5588,-339.132 252.5588,-339.1319"/>
<text text-anchor="middle" x="195.9096" y="-393.8" font-family="Times,serif" font-size="14.00" fill="#000000">basket_id:id</text>
</g>
<!-- ma_products -->
<g id="node8" class="node">
<title>ma_products</title>
<polygon fill="none" stroke="#000000" points="0,-195.9 0,-371.1 175.383,-371.1 175.383,-195.9 0,-195.9"/>
<text text-anchor="middle" x="87.6915" y="-354.5" font-family="Times,serif" font-size="14.00" fill="#000000">ma_products</text>
<polyline fill="none" stroke="#000000" points="0,-346.3 175.383,-346.3 "/>
<text text-anchor="start" x="8" y="-329.7" font-family="Times,serif" font-size="14.00" fill="#000000">description : varchar(10000)</text>
<text text-anchor="start" x="8" y="-312.9" font-family="Times,serif" font-size="14.00" fill="#000000"> image_url : varchar(1000)</text>
<text text-anchor="start" x="8" y="-296.1" font-family="Times,serif" font-size="14.00" fill="#000000"> name : varchar(255)</text>
<text text-anchor="start" x="8" y="-279.3" font-family="Times,serif" font-size="14.00" fill="#000000"> price : numeric(38,2)</text>
<text text-anchor="start" x="8" y="-262.5" font-family="Times,serif" font-size="14.00" fill="#000000"> seq : integer</text>
<text text-anchor="start" x="8" y="-245.7" font-family="Times,serif" font-size="14.00" fill="#000000"> stock : integer</text>
<text text-anchor="start" x="8" y="-228.9" font-family="Times,serif" font-size="14.00" fill="#000000"> category_id : integer</text>
<polyline fill="none" stroke="#000000" points="0,-220.7 175.383,-220.7 "/>
<text text-anchor="start" x="8" y="-204.1" font-family="Times,serif" font-size="14.00" fill="#000000">id : integer</text>
</g>
<!-- basket_items&#45;&gt;ma_products -->
<g id="edge2" class="edge">
<title>basket_items-&gt;ma_products</title>
<path fill="none" stroke="#595959" d="M110.3965,-433.1807C110.3965,-433.1807 110.3965,-381.1212 110.3965,-381.1212"/>
<polygon fill="#595959" stroke="#595959" points="113.8965,-381.1212 110.3965,-371.1212 106.8965,-381.1212 113.8965,-381.1212"/>
<text text-anchor="middle" x="101.4103" y="-393.8" font-family="Times,serif" font-size="14.00" fill="#000000">product_id:id</text>
</g>
<!-- ma_customers -->
<g id="node5" class="node">
<title>ma_customers</title>
<polygon fill="none" stroke="#000000" points="468.9176,-.5 468.9176,-142.1 624.4654,-142.1 624.4654,-.5 468.9176,-.5"/>
<text text-anchor="middle" x="546.6915" y="-125.5" font-family="Times,serif" font-size="14.00" fill="#000000">ma_customers</text>
<polyline fill="none" stroke="#000000" points="468.9176,-117.3 624.4654,-117.3 "/>
<text text-anchor="start" x="476.9176" y="-100.7" font-family="Times,serif" font-size="14.00" fill="#000000">address : varchar(255)</text>
<text text-anchor="start" x="476.9176" y="-83.9" font-family="Times,serif" font-size="14.00" fill="#000000"> email : varchar(255)</text>
<text text-anchor="start" x="476.9176" y="-67.1" font-family="Times,serif" font-size="14.00" fill="#000000"> name : varchar(255)</text>
<text text-anchor="start" x="476.9176" y="-50.3" font-family="Times,serif" font-size="14.00" fill="#000000"> password : varchar(255)</text>
<text text-anchor="start" x="476.9176" y="-33.5" font-family="Times,serif" font-size="14.00" fill="#000000"> surname : varchar(255)</text>
<polyline fill="none" stroke="#000000" points="468.9176,-25.3 624.4654,-25.3 "/>
<text text-anchor="start" x="476.9176" y="-8.7" font-family="Times,serif" font-size="14.00" fill="#000000">id : integer</text>
</g>
<!-- baskets&#45;&gt;ma_customers -->
<g id="edge3" class="edge">
<title>baskets-&gt;ma_customers</title>
<path fill="none" stroke="#595959" d="M285.6915,-237.8605C285.6915,-192.6129 285.6915,-130 285.6915,-130 285.6915,-130 458.7364,-130 458.7364,-130"/>
<polygon fill="#595959" stroke="#595959" points="458.7365,-133.5001 468.7364,-130 458.7364,-126.5001 458.7365,-133.5001"/>
<text text-anchor="middle" x="351.6852" y="-164.8" font-family="Times,serif" font-size="14.00" fill="#000000">customer_id:id</text>
</g>
<!-- customer_role -->
<g id="node3" class="node">
<title>customer_role</title>
<polygon fill="none" stroke="#000000" points="736.2076,-250.3 736.2076,-316.7 871.1754,-316.7 871.1754,-250.3 736.2076,-250.3"/>
<text text-anchor="middle" x="803.6915" y="-300.1" font-family="Times,serif" font-size="14.00" fill="#000000">customer_role</text>
<polyline fill="none" stroke="#000000" points="736.2076,-291.9 871.1754,-291.9 "/>
<text text-anchor="start" x="744.2076" y="-275.3" font-family="Times,serif" font-size="14.00" fill="#000000">customer_id : integer</text>
<text text-anchor="start" x="744.2076" y="-258.5" font-family="Times,serif" font-size="14.00" fill="#000000"> role_id : bigint</text>
</g>
<!-- customer_role&#45;&gt;ma_customers -->
<g id="edge4" class="edge">
<title>customer_role-&gt;ma_customers</title>
<path fill="none" stroke="#595959" d="M781.1969,-250.1928C781.1969,-205.0472 781.1969,-130 781.1969,-130 781.1969,-130 634.7784,-130 634.7784,-130"/>
<polygon fill="#595959" stroke="#595959" points="634.7784,-126.5001 624.7784,-130 634.7784,-133.5001 634.7784,-126.5001"/>
<text text-anchor="middle" x="749.6852" y="-164.8" font-family="Times,serif" font-size="14.00" fill="#000000">customer_id:id</text>
</g>
<!-- roles -->
<g id="node10" class="node">
<title>roles</title>
<polygon fill="none" stroke="#000000" points="733.8103,-25.7 733.8103,-116.9 895.5727,-116.9 895.5727,-25.7 733.8103,-25.7"/>
<text text-anchor="middle" x="814.6915" y="-100.3" font-family="Times,serif" font-size="14.00" fill="#000000">roles</text>
<polyline fill="none" stroke="#000000" points="733.8103,-92.1 895.5727,-92.1 "/>
<text text-anchor="start" x="741.8103" y="-75.5" font-family="Times,serif" font-size="14.00" fill="#000000">active : boolean</text>
<text text-anchor="start" x="741.8103" y="-58.7" font-family="Times,serif" font-size="14.00" fill="#000000"> role_name : varchar(255)</text>
<polyline fill="none" stroke="#000000" points="733.8103,-50.5 895.5727,-50.5 "/>
<text text-anchor="start" x="741.8103" y="-33.9" font-family="Times,serif" font-size="14.00" fill="#000000">id : bigint</text>
</g>
<!-- customer_role&#45;&gt;roles -->
<g id="edge5" class="edge">
<title>customer_role-&gt;roles</title>
<path fill="none" stroke="#595959" d="M826.1861,-249.8763C826.1861,-249.8763 826.1861,-127.0045 826.1861,-127.0045"/>
<polygon fill="#595959" stroke="#595959" points="829.6862,-127.0045 826.1861,-117.0045 822.6862,-127.0045 829.6862,-127.0045"/>
<text text-anchor="middle" x="841.9103" y="-164.8" font-family="Times,serif" font-size="14.00" fill="#000000">role_id:id</text>
</g>
<!-- ma_categories -->
<g id="node4" class="node">
<title>ma_categories</title>
<polygon fill="none" stroke="#000000" points="22.9432,-25.7 22.9432,-116.9 152.4398,-116.9 152.4398,-25.7 22.9432,-25.7"/>
<text text-anchor="middle" x="87.6915" y="-100.3" font-family="Times,serif" font-size="14.00" fill="#000000">ma_categories</text>
<polyline fill="none" stroke="#000000" points="22.9432,-92.1 152.4398,-92.1 "/>
<text text-anchor="start" x="30.9432" y="-75.5" font-family="Times,serif" font-size="14.00" fill="#000000">name : varchar(255)</text>
<text text-anchor="start" x="30.9432" y="-58.7" font-family="Times,serif" font-size="14.00" fill="#000000"> seq : integer</text>
<polyline fill="none" stroke="#000000" points="22.9432,-50.5 152.4398,-50.5 "/>
<text text-anchor="start" x="30.9432" y="-33.9" font-family="Times,serif" font-size="14.00" fill="#000000">id : integer</text>
</g>
<!-- ma_order_items -->
<g id="node6" class="node">
<title>ma_order_items</title>
<polygon fill="none" stroke="#000000" points="281.6599,-424.9 281.6599,-566.5 419.7231,-566.5 419.7231,-424.9 281.6599,-424.9"/>
<text text-anchor="middle" x="350.6915" y="-549.9" font-family="Times,serif" font-size="14.00" fill="#000000">ma_order_items</text>
<polyline fill="none" stroke="#000000" points="281.6599,-541.7 419.7231,-541.7 "/>
<text text-anchor="start" x="289.6599" y="-525.1" font-family="Times,serif" font-size="14.00" fill="#000000">count : integer</text>
<text text-anchor="start" x="289.6599" y="-508.3" font-family="Times,serif" font-size="14.00" fill="#000000"> price : numeric(38,2)</text>
<text text-anchor="start" x="289.6599" y="-491.5" font-family="Times,serif" font-size="14.00" fill="#000000"> order_id : integer</text>
<text text-anchor="start" x="289.6599" y="-474.7" font-family="Times,serif" font-size="14.00" fill="#000000"> product_id : integer</text>
<text text-anchor="start" x="289.6599" y="-457.9" font-family="Times,serif" font-size="14.00" fill="#000000"> basket_id : integer</text>
<polyline fill="none" stroke="#000000" points="281.6599,-449.7 419.7231,-449.7 "/>
<text text-anchor="start" x="289.6599" y="-433.1" font-family="Times,serif" font-size="14.00" fill="#000000">id : integer</text>
</g>
<!-- ma_order_items&#45;&gt;baskets -->
<g id="edge6" class="edge">
<title>ma_order_items-&gt;baskets</title>
<path fill="none" stroke="#595959" d="M330.5036,-424.7455C330.5036,-424.7455 330.5036,-339.3814 330.5036,-339.3814"/>
<polygon fill="#595959" stroke="#595959" points="334.0037,-339.3814 330.5036,-329.3814 327.0037,-339.3814 334.0037,-339.3814"/>
<text text-anchor="middle" x="384.9096" y="-393.8" font-family="Times,serif" font-size="14.00" fill="#000000">basket_id:id</text>
</g>
<!-- ma_orders -->
<g id="node7" class="node">
<title>ma_orders</title>
<polygon fill="none" stroke="#000000" points="372.4576,-237.9 372.4576,-329.1 510.9254,-329.1 510.9254,-237.9 372.4576,-237.9"/>
<text text-anchor="middle" x="441.6915" y="-312.5" font-family="Times,serif" font-size="14.00" fill="#000000">ma_orders</text>
<polyline fill="none" stroke="#000000" points="372.4576,-304.3 510.9254,-304.3 "/>
<text text-anchor="start" x="380.4576" y="-287.7" font-family="Times,serif" font-size="14.00" fill="#000000">date : timestamp(6)</text>
<text text-anchor="start" x="380.4576" y="-270.9" font-family="Times,serif" font-size="14.00" fill="#000000"> customer_id : integer</text>
<polyline fill="none" stroke="#000000" points="372.4576,-262.7 510.9254,-262.7 "/>
<text text-anchor="start" x="380.4576" y="-246.1" font-family="Times,serif" font-size="14.00" fill="#000000">id : integer</text>
</g>
<!-- ma_order_items&#45;&gt;ma_orders -->
<g id="edge7" class="edge">
<title>ma_order_items-&gt;ma_orders</title>
<path fill="none" stroke="#595959" d="M396.0904,-424.7455C396.0904,-424.7455 396.0904,-339.3814 396.0904,-339.3814"/>
<polygon fill="#595959" stroke="#595959" points="399.5904,-339.3814 396.0904,-329.3814 392.5904,-339.3814 399.5904,-339.3814"/>
<text text-anchor="middle" x="472.7953" y="-393.8" font-family="Times,serif" font-size="14.00" fill="#000000">order_id:id</text>
</g>
<!-- ma_order_items&#45;&gt;ma_products -->
<g id="edge8" class="edge">
<title>ma_order_items-&gt;ma_products</title>
<path fill="none" stroke="#595959" d="M306.0817,-424.85C306.0817,-389.425 306.0817,-354 306.0817,-354 306.0817,-354 185.5752,-354 185.5752,-354"/>
<polygon fill="#595959" stroke="#595959" points="185.5752,-350.5001 175.5752,-354 185.5751,-357.5001 185.5752,-350.5001"/>
<text text-anchor="middle" x="290.4103" y="-393.8" font-family="Times,serif" font-size="14.00" fill="#000000">product_id:id</text>
</g>
<!-- ma_orders&#45;&gt;ma_customers -->
<g id="edge9" class="edge">
<title>ma_orders-&gt;ma_customers</title>
<path fill="none" stroke="#595959" d="M489.9215,-237.717C489.9215,-237.717 489.9215,-152.4645 489.9215,-152.4645"/>
<polygon fill="#595959" stroke="#595959" points="493.4216,-152.4644 489.9215,-142.4645 486.4216,-152.4645 493.4216,-152.4644"/>
<text text-anchor="middle" x="509.6852" y="-164.8" font-family="Times,serif" font-size="14.00" fill="#000000">customer_id:id</text>
</g>
<!-- ma_products&#45;&gt;ma_categories -->
<g id="edge10" class="edge">
<title>ma_products-&gt;ma_categories</title>
<path fill="none" stroke="#595959" d="M87.6915,-195.6584C87.6915,-195.6584 87.6915,-127.002 87.6915,-127.002"/>
<polygon fill="#595959" stroke="#595959" points="91.1916,-127.0019 87.6915,-117.002 84.1916,-127.002 91.1916,-127.0019"/>
<text text-anchor="middle" x="128.1249" y="-164.8" font-family="Times,serif" font-size="14.00" fill="#000000">category_id:id</text>
</g>
<!-- refresh_token -->
<g id="node9" class="node">
<title>refresh_token</title>
<polygon fill="none" stroke="#000000" points="528.8794,-229.5 528.8794,-337.5 696.5036,-337.5 696.5036,-229.5 528.8794,-229.5"/>
<text text-anchor="middle" x="612.6915" y="-320.9" font-family="Times,serif" font-size="14.00" fill="#000000">refresh_token</text>
<polyline fill="none" stroke="#000000" points="528.8794,-312.7 696.5036,-312.7 "/>
<text text-anchor="start" x="536.8794" y="-296.1" font-family="Times,serif" font-size="14.00" fill="#000000">expiry_date : timestamp(6)</text>
<text text-anchor="start" x="536.8794" y="-279.3" font-family="Times,serif" font-size="14.00" fill="#000000"> token : varchar(255)</text>
<text text-anchor="start" x="536.8794" y="-262.5" font-family="Times,serif" font-size="14.00" fill="#000000"> customer_id : integer</text>
<polyline fill="none" stroke="#000000" points="528.8794,-254.3 696.5036,-254.3 "/>
<text text-anchor="start" x="536.8794" y="-237.7" font-family="Times,serif" font-size="14.00" fill="#000000">id : integer</text>
</g>
<!-- refresh_token&#45;&gt;ma_customers -->
<g id="edge11" class="edge">
<title>refresh_token-&gt;ma_customers</title>
<path fill="none" stroke="#595959" d="M576.6724,-229.4039C576.6724,-229.4039 576.6724,-152.1347 576.6724,-152.1347"/>
<polygon fill="#595959" stroke="#595959" points="580.1725,-152.1346 576.6724,-142.1347 573.1725,-152.1347 580.1725,-152.1346"/>
<text text-anchor="middle" x="642.6852" y="-164.8" font-family="Times,serif" font-size="14.00" fill="#000000">customer_id:id</text>
</g>
</g>
</svg>